<svg width="47" height="47" fill="none" xmlns="http://www.w3.org/2000/svg"><path d="M44.523 25.95c.067-.55.103-1.103.107-1.657a14.89 14.89 0 00-8.852-13.59 7.047 7.047 0 10-12.049 0 14.89 14.89 0 00-8.852 13.59 14.64 14.64 0 00.945 5.157 13.3 13.3 0 00-6.212 3.691c-.47.47-1 1.012-1.573 1.609L.646 42.856A2.476 2.476 0 002.477 47h9.759c.915 0 1.784-.4 2.378-1.096l2.285-2.662a2.362 2.362 0 011.88-.94h14.906a3.826 3.826 0 002.62-1.142l9.776-9.944a3.132 3.132 0 00-1.56-5.261l.002-.005zM29.753 1.587a5.446 5.446 0 014.52 8.534 14.696 14.696 0 00-2.17-.5V7.706a2.344 2.344 0 00-.783-4.553h-3.132a2.344 2.344 0 00-.783 4.553v1.915c-.736.112-1.461.28-2.17.502a5.447 5.447 0 014.519-8.536zm-1.565 4.697a.783.783 0 110-1.566h3.132a.783.783 0 010 1.566h-3.132zm2.349 1.566v1.606c-.261-.014-.519-.04-.783-.04-.265 0-.523.026-.783.04V7.85h1.566zm-.783 3.132c7.348.009 13.302 5.963 13.31 13.311a12.898 12.898 0 01-.124 1.7 3.134 3.134 0 00-1.123.6l-.68.568a11.745 11.745 0 10-22.13 1.855 16.4 16.4 0 00-1.625.133 13.083 13.083 0 01-.94-4.856c.009-7.348 5.964-13.302 13.312-13.31zm10.178 13.311a10.161 10.161 0 01-1.308 4.972l-3.177 2.657a3.299 3.299 0 00-2.695-1.365h-8.765a.705.705 0 01-.452-.142 6.236 6.236 0 00-2.732-1.294 10.179 10.179 0 1119.13-4.828zm5.033 5.821l-9.775 9.944c-.403.413-.95.656-1.526.678H18.78a3.909 3.909 0 00-3.101 1.525l-2.253 2.625a1.566 1.566 0 01-1.19.548H2.477a.91.91 0 01-.676-1.523l7.378-8.095a96.99 96.99 0 011.535-1.572 11.671 11.671 0 018.849-3.687 4.62 4.62 0 012.975 1.065c.41.33.923.506 1.449.5h8.765a1.698 1.698 0 011.644 1.175.702.702 0 00.029.121 1.566 1.566 0 01-1.543 1.839H23.48a.783.783 0 100 1.566h9.4a3.132 3.132 0 003.132-3.294v-.033l6.812-5.702a1.58 1.58 0 012.143 2.32h-.002z" fill="#fff"/><path d="M35.45 25.107l-2.572-.735c0-.027.008-.051.008-.079a3.105 3.105 0 00-.783-2.05v-3.43a2.36 2.36 0 00-2.35-2.35 2.349 2.349 0 00-2.348 2.35v3.43a3.12 3.12 0 105.037 3.631l2.578.738a.783.783 0 00.43-1.505zm-6.48-6.295c0-.432.351-.783.784-.783.21 0 .413.086.557.24a.75.75 0 01.226.543v2.46a2.814 2.814 0 00-1.566 0v-2.46zm.784 7.047a1.566 1.566 0 110-3.132 1.566 1.566 0 010 3.132z" fill="#fff"/></svg>