<svg width="47" height="47" fill="none" xmlns="http://www.w3.org/2000/svg"><path d="M0 45.484V47h47v-1.516H0zm12.129-9.097a3.035 3.035 0 00-3.032 3.032 3.035 3.035 0 003.032 3.033 3.035 3.035 0 003.032-3.032 3.035 3.035 0 00-3.032-3.033zm0 4.549a1.518 1.518 0 010-3.032c.836 0 1.516.68 1.516 1.516s-.68 1.516-1.516 1.516zm22.742-4.549a3.035 3.035 0 00-3.032 3.032 3.035 3.035 0 003.032 3.033 3.035 3.035 0 003.032-3.032 3.035 3.035 0 00-3.032-3.033zm0 4.549a1.518 1.518 0 010-3.032c.836 0 1.516.68 1.516 1.516s-.68 1.516-1.516 1.516z" fill="#fff"/><path d="M46.58 29.644l-5.908-2.954-6.109-7.942a5.34 5.34 0 00-4.206-2.07h-8.932a11.288 11.288 0 001.317-5.307c0-1.705-.369-3.344-1.095-4.873l-1.37.65a9.764 9.764 0 01.949 4.223c0 2.02-.609 3.95-1.752 5.6a5.326 5.326 0 00-2.489 1.778l-1.03 1.34a9.858 9.858 0 01-4.584 1.137 9.769 9.769 0 01-6.298-2.274h2.508v-1.516H3.79a.758.758 0 00-.759.758v3.79h1.516v-1.53a11.259 11.259 0 006.823 2.288c.951 0 1.898-.12 2.814-.353l-3.245 4.219-7.345 1.573A4.572 4.572 0 000 32.63v5.274a2.277 2.277 0 002.274 2.275h3.843c.375 2.986 2.925 5.306 6.012 5.306 3.087 0 5.637-2.32 6.012-5.306H28.86c.375 2.986 2.925 5.306 6.012 5.306 3.087 0 5.637-2.32 6.012-5.306h3.842A2.277 2.277 0 0047 37.903v-7.58a.759.759 0 00-.42-.679zm-1.096 5.985h-1.516v-5.596l1.516.758v4.838zM1.519 32.597h1.513v1.516H1.516V32.63c0-.01.003-.021.003-.032zm10.61 11.37a4.553 4.553 0 01-4.548-4.547 4.553 4.553 0 014.548-4.549 4.553 4.553 0 014.548 4.548 4.553 4.553 0 01-4.548 4.549zm22.742 0a4.553 4.553 0 01-4.548-4.547 4.553 4.553 0 014.548-4.549 4.553 4.553 0 014.548 4.548 4.553 4.553 0 01-4.548 4.549zm9.855-5.306h-3.843c-.375-2.986-2.925-5.306-6.012-5.306-3.087 0-5.637 2.32-6.012 5.306H18.14c-.375-2.986-2.925-5.306-6.012-5.306-3.087 0-5.637 2.32-6.012 5.306H2.274a.76.76 0 01-.758-.758V35.63H3.79c.419 0 .758-.34.758-.758V31.84a.758.758 0 00-.758-.758H1.952a3.034 3.034 0 011.961-1.417l7.617-1.632a.76.76 0 00.442-.28l6.216-8.078a3.81 3.81 0 013.004-1.48h9.166a3.81 3.81 0 013.004 1.48l6.215 8.079a.76.76 0 00.262.216l2.613 1.306v7.112c0 .419.34.758.758.758h2.274v.758a.76.76 0 01-.758.758z" fill="#fff"/><path d="M37.06 28.398a.758.758 0 00-.052-.784l-4.627-6.61a3.032 3.032 0 00-2.484-1.295h-8.245c-.99 0-1.918.484-2.484 1.294l-4.628 6.61a.758.758 0 00.621 1.193h21.226a.759.759 0 00.672-.408zm-16.65-6.526a1.516 1.516 0 011.242-.646h3.364v6.064h-8.398l3.792-5.418zm6.122 5.418v-6.064h3.365c.494 0 .959.241 1.241.646l3.793 5.418h-8.399zM23.5 30.323h3.032v1.516H23.5v-1.516zm10.613-.001h3.032v1.516h-3.032v-1.516zM2.464 15.594a9.774 9.774 0 01-.948-4.223c0-5.434 4.421-9.855 9.855-9.855 2.332 0 4.532.801 6.298 2.274h-2.508v1.516h3.79c.42 0 .759-.34.759-.758V.758h-1.517v1.53A11.26 11.26 0 0011.372 0C5.101 0 0 5.101 0 11.371c0 1.705.368 3.345 1.095 4.874l1.369-.65z" fill="#fff"/><path d="M10.465 14.52l-2.293-2.864-1.184.947 3.032 3.79a.76.76 0 001.27-.134l4.549-9.097-1.357-.678-4.017 8.037z" fill="#fff"/></svg>