<svg width="47" height="47" fill="none" xmlns="http://www.w3.org/2000/svg"><path d="M46.523 40.798a.805.805 0 00-.317-.066h-6.483v-4.7h6.483A.789.789 0 0047 35.25a.774.774 0 00-.067-.313c-1.91-4.349-7.035-6.346-11.446-4.463a8.738 8.738 0 00-1.326.707v-1.414h-1.59v2.714a8.624 8.624 0 00-1.423 1.986h-6.522v-5.702l4.224-1.388a.784.784 0 00.543-.743v-2.35h3.973c2.193.002 3.97 1.754 3.973 3.916h1.589c-.003-3.026-2.492-5.48-5.562-5.483h-5.562V20.09c2.455-1.398 3.969-3.979 3.973-6.774V9.4h3.973V7.833h-3.973V4.7C31.774 2.105 29.64.003 27.009 0h-6.356c-2.632.003-4.765 2.105-4.768 4.7v3.133h-3.178a.79.79 0 00-.795.783v4.7a.79.79 0 00.795.784h.794v3.916a.78.78 0 00.354.652l2.384 1.567.882-1.304-2.03-1.334V14.1h.835a7.832 7.832 0 003.932 5.99v2.626h-5.562c-3.07.004-5.559 2.457-5.562 5.483h1.59c.002-2.162 1.779-3.914 3.972-3.916h3.973v2.35c0 .337.219.637.544.743l4.223 1.388v5.702h-6.522a8.623 8.623 0 00-1.423-1.986v-2.714H13.5v1.41c-4.04-2.595-9.451-1.47-12.084 2.514-2.633 3.984-1.491 9.318 2.55 11.913A8.824 8.824 0 008.734 47c3.283-.002 6.288-1.817 7.78-4.7h14.634c2.19 4.236 7.45 5.92 11.746 3.76a8.66 8.66 0 004.04-4.23.779.779 0 00-.411-1.031zM15.885 12.533h-2.383V9.4h2.383v3.133zm11.919 13.535l-2.027.667 1.657-2.452h.37v1.785zm-6.357-3.352v-1.928a8.048 8.048 0 004.768 0v1.928h-4.768zM17.474 4.7c0-1.73 1.423-3.133 3.179-3.133h6.356c1.756 0 3.179 1.402 3.179 3.133v3.133H17.474V4.7zm0 8.616V9.4h12.714v3.916c0 3.461-2.846 6.267-6.357 6.267-3.51 0-6.357-2.806-6.357-6.267zm2.384 12.752v-1.785h.37l1.657 2.452-2.027-.667zm2.279-1.785h3.388l-1.694 2.506-1.694-2.506zm12.826 19.965a7.067 7.067 0 01-2.585-3.046.795.795 0 00-.727-.47H16.01a.795.795 0 00-.727.47c-1.58 3.569-5.795 5.2-9.415 3.642-3.62-1.558-5.273-5.713-3.694-9.281 1.138-2.571 3.714-4.232 6.559-4.23 2.842.001 5.413 1.662 6.55 4.23.126.285.412.47.728.47H31.65a.795.795 0 00.727-.47c1.575-3.566 5.784-5.198 9.4-3.645a7.119 7.119 0 013.09 2.548h-5.94a.789.789 0 00-.794.783v6.267c0 .432.355.783.794.783h5.94c-2.189 3.235-6.624 4.108-9.905 1.95z" fill="#fff"/><path d="M13.116 35.361l-3.973-2.35a.804.804 0 00-.818 0l-3.973 2.35a.781.781 0 00-.386.661L3.9 40.983a.782.782 0 00.426.704l4.04 2.09c.245.126.54.117.777-.023l3.973-2.35a.781.781 0 00.385-.672v-4.7a.781.781 0 00-.385-.67zm-1.204 4.928l-3.204 1.896-3.213-1.662.055-4.043 3.184-1.884 3.178 1.88v3.813zM31.777 37.6H15.885v1.566h15.892v-1.567zm-7.151-26.634h-1.59v3.917h1.59v-3.917zm6.356 20.367h-4.767V32.9h4.767v-1.567z" fill="#fff"/></svg>