<svg width="47" height="53" fill="none" xmlns="http://www.w3.org/2000/svg"><path d="M30.293 33.513a1.012 1.012 0 100-2.024h-.96v-1.251c0-.56-.453-1.012-1.012-1.012h-5.91c-.56 0-1.013.453-1.013 1.012v.233h-.89l-1.89-5.428 3.967-5.045c.208-.265.271-.616.167-.937L16.826.701A1.012 1.012 0 0015.55.05L.701 4.843A1.012 1.012 0 00.05 6.117l5.927 18.36c.104.32.36.569.684.662l6.208 1.785 1.235 3.547h-3.269a3.529 3.529 0 00-2.63 1.174h-3.36a1.012 1.012 0 100 2.025h2.376L1.599 50.733a1.012 1.012 0 00.961 1.33 10.63 10.63 0 0010.099-7.28l2.013-6.041a2.219 2.219 0 011.601-1.461 11.772 11.772 0 003.426 7.316l.612.612a1.01 1.01 0 001.431 0 1.012 1.012 0 000-1.431l-.611-.612a9.763 9.763 0 01-2.83-5.944h3.097v.234c0 .559.453 1.012 1.012 1.012h5.911c.56 0 1.012-.453 1.012-1.012v-1.251h.96a1.012 1.012 0 100-2.024h-.96v-.668h.96zM15.21 2.286l.462 1.432L2.748 7.89l-.462-1.432L15.21 2.286zM7.737 23.342L3.37 9.816l12.924-4.172L20.66 19.17l-3.785 4.814-3.242 1.053-5.896-1.695zm7.21 3.397l1.903-.618 1.515 4.35h-2.118l-1.3-3.732zm-4.208 17.404a8.608 8.608 0 01-6.74 5.775l4.184-12.696h4.978a4.267 4.267 0 00-.41.88l-2.012 6.041zm-1.89-8.945l.549-1.663a1.51 1.51 0 011.436-1.04h10.564v2.703H8.85zm18.46 1.246h-3.887V31.25h3.887v5.194zm19.248 5.163l-11.426-7.76 11.425-7.761a1.012 1.012 0 00-1.137-1.675L32.761 33.01a1.012 1.012 0 000 1.675l12.658 8.598a1.011 1.011 0 101.138-1.675z" fill="#fff"/></svg>