<svg width="48" height="48" fill="none" xmlns="http://www.w3.org/2000/svg"><path d="M47.448 19.868v-.708c0-.854-.37-1.664-1.015-2.222l-4.371-3.783a2.947 2.947 0 00-1.928-.718h-10.39c-.64 0-1.274.213-1.784.601l-4.273 3.251-5.647 1.002a2.943 2.943 0 00-1.951 1.295l-.294.455a3.526 3.526 0 00-.258 3.37c.206.458.5.86.877 1.195l.397.352c.603.536 1.379.83 2.185.83h.904a3.867 3.867 0 001.284 1.424h-6.619v-13.35a.91.91 0 00-.91-.91H3.793a.91.91 0 00-.878.671L.032 23.243a.908.908 0 00-.032.24v7.28a.91.91 0 00.91.911h2.72a3.846 3.846 0 003.804 4.375 3.846 3.846 0 003.804-4.375h15.46a3.846 3.846 0 003.804 4.375 3.846 3.846 0 003.804-4.375h1.14a3.846 3.846 0 003.804 4.375 3.846 3.846 0 003.804-4.375h1.55a.91.91 0 00.91-.91v-3.642a.91.91 0 00-.91-.91h-1.711a3.869 3.869 0 001.284-1.423h.458a3.482 3.482 0 002.737-1.344 3.022 3.022 0 00.628-1.84 3 3 0 00-.552-1.737zm-4.608-3.631h-1.785l-.486-1.89c.109.045.21.107.301.185l1.97 1.705zm-3.665 0h-4.85l.453-1.98h3.888l.51 1.98zm-10.112-1.75c.195-.148.436-.23.681-.23h3.166l-.452 1.98h-5.695l2.3-1.75zm-7.78 8.523c0-1.115.906-2.021 2.02-2.021 1.115 0 2.021.906 2.021 2.02a2.023 2.023 0 01-2.02 2.022 2.023 2.023 0 01-2.022-2.021zM4.488 13.772h3.4v7.303l-5.71 1.208 2.31-8.511zm2.945 20.456a2.023 2.023 0 01-2.02-2.02c0-1.115.906-2.022 2.02-2.022 1.115 0 2.021.907 2.021 2.022a2.023 2.023 0 01-2.02 2.02zm0-5.863c-1.232 0-2.33.584-3.033 1.489H1.82v-2.58h1.517a.91.91 0 000-1.82H1.82V24.22l7.167-1.517a.91.91 0 00.722-.89v-8.041h3.035v16.082h-2.278a3.837 3.837 0 00-3.033-1.488zm23.068 5.863a2.023 2.023 0 01-2.02-2.02c0-1.115.906-2.022 2.02-2.022 1.115 0 2.021.907 2.021 2.022a2.023 2.023 0 01-2.02 2.02zm8.748 0a2.023 2.023 0 01-2.021-2.02c0-1.115.906-2.022 2.02-2.022 1.115 0 2.022.907 2.022 2.022a2.023 2.023 0 01-2.021 2.02zm4.444-4.375h-1.411a3.837 3.837 0 00-6.066 0h-2.682a3.837 3.837 0 00-6.066 0H14.565v-1.82h29.13v1.82zm-18.271-3.64a3.869 3.869 0 001.284-1.424H37.37a3.869 3.869 0 001.284 1.423H25.423zm13.33-3.203c0-1.115.906-2.021 2.02-2.021 1.115 0 2.022.906 2.022 2.02a2.023 2.023 0 01-2.022 2.022 2.023 2.023 0 01-2.02-2.021zm7.178-.679a1.65 1.65 0 01-1.296.637h-.02a3.846 3.846 0 00-3.841-3.8 3.846 3.846 0 00-3.841 3.8h-9.789a3.846 3.846 0 00-3.84-3.8 3.846 3.846 0 00-3.841 3.8h-.467a1.47 1.47 0 01-.976-.371l-.396-.352a1.713 1.713 0 01-.313-.372h.743a.91.91 0 100-1.821h-.743l.012-.022.295-.455c.167-.258.436-.437.74-.49l5.785-1.028h20.801l.297.258c.246.212.387.52.387.845v1.027a.91.91 0 00.24.615 1.185 1.185 0 01.063 1.53z" fill="#fff"/></svg>