<svg width="47" height="47" fill="none" xmlns="http://www.w3.org/2000/svg"><path d="M43.083 0h-32.9a3.921 3.921 0 00-3.916 3.917v36.816H.783a.783.783 0 00-.783.784v1.566A3.921 3.921 0 003.917 47h32.9a3.921 3.921 0 003.916-3.917V24.608l4.863-4.863a2.445 2.445 0 00-3.458-3.457l-1.405 1.404V6.267h5.484A.784.784 0 0047 5.483V3.917A3.921 3.921 0 0043.083 0zM3.917 45.433a2.35 2.35 0 01-2.35-2.35V42.3H32.9v.783c.002.244.026.488.074.727.014.079.037.145.055.218.038.16.087.316.145.47a3.909 3.909 0 00.324.642c.041.066.079.133.125.195.022.032.038.068.062.098H3.917zm35.25-2.35a2.35 2.35 0 11-4.7 0v-1.566a.783.783 0 00-.784-.784H7.833V3.917a2.35 2.35 0 012.35-2.35H39.95c-.024.03-.04.065-.062.098-.044.062-.084.129-.124.195a3.908 3.908 0 00-.226.415c-.035.078-.068.15-.099.227a3.98 3.98 0 00-.145.47c-.018.073-.041.143-.055.218-.047.24-.071.483-.072.727v15.342l-9.954 9.954a.78.78 0 00-.206.364l-.784 3.133a.783.783 0 00.207.744.767.767 0 00.227.151.791.791 0 00.322.078h.004a.786.786 0 00.19-.024l3.133-.783a.782.782 0 00.364-.206l6.497-6.496v16.91zm4.078-25.688a.9.9 0 011.243 0 .88.88 0 010 1.243l-.621.621-1.243-1.242.621-.622zm-1.728 1.73l1.242 1.242-11.045 11.045-1.656.414.415-1.656 11.044-11.046zM45.433 4.7h-4.7v-.783a2.35 2.35 0 114.7 0V4.7z" fill="#fff"/><path d="M32.117 4.7H14.883v1.567h17.234V4.7zM17.463 8.063l-1.436 1.435a.76.76 0 00-.36-.098H11.75a.783.783 0 00-.783.783V14.1c0 .432.35.783.783.783h3.917c.432 0 .783-.35.783-.783v-2.81l2.12-2.12-1.107-1.107zm-2.58 5.253h-2.35v-2.35h2.026l-1.013 1.013 1.108 1.108.23-.23v.46zM36.033 9.4h-16.45v1.567h16.45V9.4zM32.9 12.533H19.583V14.1H32.9v-1.567zm-15.437 3.363l-1.436 1.436a.762.762 0 00-.36-.098H11.75a.783.783 0 00-.783.783v3.917c0 .432.35.783.783.783h3.917c.432 0 .783-.35.783-.783v-2.81l2.12-2.12-1.107-1.108zm-2.58 5.254h-2.35V18.8h2.026l-1.013 1.013 1.108 1.108.23-.23v.46zm21.15-3.917h-16.45V18.8h16.45v-1.567zM32.9 20.367H19.584v1.567H32.9v-1.567zM17.463 23.73l-1.436 1.435a.762.762 0 00-.36-.098H11.75a.783.783 0 00-.783.783v3.917c0 .432.35.783.783.783h3.917c.432 0 .783-.35.783-.783v-2.81l2.12-2.12-1.107-1.107zm-2.58 5.253h-2.35v-2.35h2.026l-1.013 1.013 1.108 1.108.23-.23v.46zm14.883-3.917H19.583v1.567h10.183v-1.567zM26.633 28.2h-7.05v1.567h7.05V28.2zm-9.17 3.363l-1.436 1.435a.76.76 0 00-.36-.098H11.75a.783.783 0 00-.783.783V37.6c0 .432.35.783.783.783h3.917c.432 0 .783-.35.783-.783v-2.81l2.12-2.12-1.107-1.108zm-2.58 5.253h-2.35v-2.35h2.026l-1.013 1.013 1.108 1.108.23-.23v.46zM26.634 32.9h-7.05v1.567h7.05V32.9zm6.266 3.133H19.583V37.6H32.9v-1.567z" fill="#fff"/></svg>