<svg width="14" height="8" viewBox="0 0 14 8" fill="none" xmlns="http://www.w3.org/2000/svg">
<path d="M0.250353 0.999952C0.249782 1.09866 0.268701 1.1965 0.306024 1.28788C0.343348 1.37926 0.398342 1.46237 0.467854 1.53245L6.46785 7.53245C6.53757 7.60275 6.62052 7.65855 6.71192 7.69662C6.80331 7.7347 6.90134 7.7543 7.00035 7.7543C7.09936 7.7543 7.19739 7.7347 7.28878 7.69662C7.38018 7.65855 7.46313 7.60275 7.53285 7.53245L13.5329 1.53245C13.6741 1.39122 13.7534 1.19968 13.7534 0.999953C13.7534 0.800227 13.6741 0.608682 13.5329 0.467454C13.3916 0.326226 13.2001 0.246884 13.0004 0.246884C12.8006 0.246884 12.6091 0.326226 12.4679 0.467454L7.00035 5.94245L1.53285 0.467453C1.46313 0.397156 1.38018 0.341359 1.28879 0.303283C1.19739 0.265206 1.09936 0.245603 1.00035 0.245603C0.901344 0.245603 0.803314 0.265206 0.71192 0.303283C0.620526 0.341359 0.537576 0.397156 0.467854 0.467453C0.398342 0.537532 0.343348 0.620643 0.306024 0.712021C0.268701 0.803399 0.249782 0.901247 0.250353 0.999952Z" fill="#25282A"/>
</svg>
