<svg width="14" height="14" viewBox="0 0 14 14" fill="none" xmlns="http://www.w3.org/2000/svg">
<path d="M6.99999 6.84692C8.55655 6.84692 9.81851 5.3142 9.81851 3.42348C9.81851 1.53272 9.40419 0 6.99999 0C4.5958 0 4.1814 1.53272 4.1814 3.42348C4.1814 5.3142 5.44335 6.84692 6.99999 6.84692Z" fill="#989EAB"/>
<path d="M1.67634 12.0741C1.67586 11.9588 1.67537 12.0416 1.67634 12.0741V12.0741Z" fill="#989EAB"/>
<path d="M12.3235 12.1641C12.325 12.1326 12.324 11.9452 12.3235 12.1641V12.1641Z" fill="#989EAB"/>
<path d="M12.3174 11.9359C12.2652 8.64219 11.835 7.70367 8.54328 7.10959C8.54328 7.10959 8.07992 7.70003 6.99992 7.70003C5.91991 7.70003 5.45647 7.10959 5.45647 7.10959C2.20067 7.69719 1.74435 8.62179 1.68435 11.8289C1.67943 12.0907 1.67715 12.1045 1.67627 12.0741C1.67647 12.1311 1.67671 12.2364 1.67671 12.4201C1.67671 12.4201 2.46039 14 6.99992 14C11.5394 14 12.3231 12.4201 12.3231 12.4201C12.3231 12.3021 12.3232 12.22 12.3233 12.1642C12.3224 12.183 12.3207 12.1465 12.3174 11.9359Z" fill="#989EAB"/>
</svg>
