<svg width="14" height="14" viewBox="0 0 14 14" fill="none" xmlns="http://www.w3.org/2000/svg">
<path d="M6.99999 6.84692C8.55655 6.84692 9.81851 5.3142 9.81851 3.42348C9.81851 1.53272 9.40419 0 6.99999 0C4.5958 0 4.1814 1.53272 4.1814 3.42348C4.1814 5.3142 5.44335 6.84692 6.99999 6.84692Z" fill="#555D6F"/>
<path d="M1.67634 12.0739C1.67586 11.9586 1.67537 12.0414 1.67634 12.0739V12.0739Z" fill="#555D6F"/>
<path d="M12.3234 12.1643C12.3249 12.1327 12.3239 11.9453 12.3234 12.1643V12.1643Z" fill="#555D6F"/>
<path d="M12.3174 11.9357C12.2652 8.64197 11.835 7.70345 8.54328 7.10938C8.54328 7.10938 8.07992 7.69982 6.99992 7.69982C5.91991 7.69982 5.45647 7.10938 5.45647 7.10938C2.20067 7.69697 1.74435 8.62157 1.68435 11.8287C1.67943 12.0905 1.67715 12.1043 1.67627 12.0739C1.67647 12.1309 1.67671 12.2362 1.67671 12.4199C1.67671 12.4199 2.46039 13.9998 6.99992 13.9998C11.5394 13.9998 12.3231 12.4199 12.3231 12.4199C12.3231 12.3019 12.3232 12.2198 12.3233 12.164C12.3224 12.1828 12.3207 12.1463 12.3174 11.9357Z" fill="#555D6F"/>
</svg>
