<svg width="47" height="47" viewBox="0 0 47 47" fill="none" xmlns="http://www.w3.org/2000/svg">
<path d="M44.5232 25.9501C44.5905 25.4003 44.6264 24.8471 44.6305 24.2933C44.6225 18.4124 41.1538 13.0873 35.778 10.7029C37.5724 7.74611 36.9558 3.92417 34.3225 1.68179C31.6893 -0.560596 27.818 -0.560596 25.1848 1.68179C22.5516 3.92417 21.9349 7.74611 23.7293 10.7029C18.3535 13.0872 14.8848 18.4124 14.8768 24.2933C14.879 26.055 15.1991 27.802 15.8219 29.45C13.4502 30.0834 11.3001 31.361 9.6097 33.141C9.13993 33.6108 8.61061 34.1534 8.03742 34.75L0.646046 42.8563C-0.0146578 43.5813 -0.185142 44.6279 0.211375 45.525C0.607813 46.4222 1.49659 47.0006 2.47742 47H12.2358C13.1508 46.9996 14.0198 46.5991 14.6145 45.9038L16.8993 43.2417C17.3443 42.6518 18.0396 42.3041 18.7785 42.302H33.685C34.6728 42.2738 35.6113 41.8644 36.3041 41.1597L46.0805 31.2157C46.8829 30.4036 47.1798 29.2193 46.8554 28.1247C46.5311 27.0301 45.6368 26.1987 44.5216 25.9548L44.5232 25.9501ZM29.7537 1.58652C31.7827 1.57422 33.6505 2.69082 34.6 4.48404C35.5496 6.27726 35.4236 8.44967 34.2731 10.1211C33.5633 9.89965 32.8378 9.73238 32.1026 9.62073V7.70639C33.1805 7.32672 33.8273 6.22508 33.6337 5.09891C33.4401 3.97274 32.4624 3.15041 31.3196 3.15252H28.1877C27.045 3.15033 26.0673 3.97267 25.8736 5.09891C25.6799 6.22508 26.3268 7.3268 27.4047 7.70639V9.62081C26.6695 9.73324 25.944 9.90122 25.2342 10.1235C24.0824 8.45202 23.9556 6.27867 24.9053 4.48467C25.8551 2.69059 27.7238 1.57359 29.7537 1.58652ZM28.1877 6.28446C27.7553 6.28446 27.4047 5.93394 27.4047 5.50146C27.4047 5.06898 27.7552 4.71845 28.1877 4.71845H31.3196C31.752 4.71845 32.1026 5.06898 32.1026 5.50146C32.1026 5.93394 31.7521 6.28446 31.3196 6.28446H28.1877ZM30.5366 7.85047V9.45636C30.2759 9.44226 30.0183 9.4164 29.7536 9.4164C29.489 9.4164 29.2313 9.44226 28.9706 9.45636V7.85047H30.5366ZM29.7537 10.9824C37.1017 10.9906 43.0563 16.9453 43.0645 24.2933C43.0605 24.8617 43.0189 25.4294 42.94 25.9924C42.5286 26.1136 42.1465 26.318 41.8172 26.5929L41.1368 27.1613C42.4007 22.1792 40.2782 16.9541 35.898 14.2646C31.5178 11.5751 25.8978 12.0463 22.0266 15.4274C18.1554 18.8085 16.9323 24.314 19.0079 29.0162C18.4642 29.033 17.9217 29.0775 17.3825 29.1493C16.7634 27.6051 16.4445 25.957 16.4429 24.2932C16.451 16.9453 22.4057 10.9906 29.7537 10.9824ZM39.9325 24.2933C39.9297 26.0351 39.4791 27.7469 38.6241 29.2645L35.4475 31.9219C34.8223 31.058 33.818 30.5496 32.7517 30.5572H23.9869C23.8244 30.5632 23.6648 30.5129 23.5352 30.4147C22.7442 29.7659 21.8057 29.3217 20.8026 29.1212C18.7803 25.386 19.2899 20.7879 22.081 17.5862C24.872 14.3846 29.3576 13.2525 33.3337 14.7464C37.3098 16.2402 39.9402 20.0459 39.9325 24.2933ZM44.9648 30.114L35.19 40.0579C34.7872 40.4714 34.2408 40.7142 33.6639 40.736H18.78C17.5654 40.7349 16.4193 41.2986 15.6786 42.2613L13.4259 44.8859C13.1284 45.2337 12.6935 45.434 12.2357 45.434H2.47742C2.11624 45.4357 1.78827 45.2236 1.64169 44.8935C1.4951 44.5635 1.55754 44.1779 1.80089 43.9111L9.17902 35.8165C9.72714 35.2426 10.2486 34.7102 10.7145 34.2442C12.9999 31.8047 16.2216 30.4623 19.563 30.5571C20.6492 30.5513 21.7026 30.9283 22.5384 31.622C22.9488 31.9513 23.4607 32.1281 23.9869 32.1224H32.7517C33.4985 32.1097 34.1657 32.5864 34.396 33.2969C34.402 33.3381 34.4118 33.3787 34.425 33.4182C34.4369 33.4808 34.4445 33.5441 34.4477 33.6077C34.4705 34.0372 34.3156 34.4572 34.0195 34.7691C33.7233 35.081 33.3118 35.2573 32.8817 35.2567H23.4803C23.0479 35.2567 22.6973 35.6072 22.6973 36.0397C22.6973 36.4721 23.0479 36.8227 23.4803 36.8227H32.8801C33.7395 36.8239 34.5616 36.4718 35.1538 35.8491C35.746 35.2264 36.0563 34.3877 36.0121 33.5295V33.4958L42.8241 27.794C43.4704 27.2502 44.43 27.3106 45.0031 27.931C45.5762 28.5514 45.5604 29.5128 44.9671 30.1141H44.9648V30.114Z" fill="white"/>
<path d="M35.4501 25.1067L32.8779 24.3715C32.8779 24.3449 32.8857 24.3206 32.8857 24.2933C32.8829 23.5374 32.6045 22.8087 32.1027 22.2434V18.8123C32.0963 17.5177 31.0484 16.4698 29.7538 16.4634C28.4565 16.4634 27.4049 17.515 27.4049 18.8123V22.2434C26.62 23.1343 26.4088 24.3935 26.8604 25.4917C27.3119 26.5899 28.3476 27.3365 29.5322 27.4177C30.7169 27.4989 31.8447 26.9004 32.4418 25.8742L35.0195 26.6117C35.0894 26.6322 35.1619 26.6424 35.2348 26.6423C35.6247 26.6417 35.9548 26.3542 36.009 25.968C36.0631 25.5818 35.8248 25.2146 35.4501 25.1067ZM28.9708 18.8122C28.9708 18.3798 29.3213 18.0292 29.7538 18.0292C29.9648 18.0285 30.1666 18.1153 30.3113 18.2688C30.4574 18.4116 30.5388 18.6079 30.5368 18.8122V21.2724C30.0254 21.1242 29.4823 21.1242 28.9708 21.2724V18.8122ZM29.7538 25.8592C28.8889 25.8592 28.1878 25.1581 28.1878 24.2932C28.1878 23.4283 28.8889 22.7272 29.7538 22.7272C30.6187 22.7272 31.3198 23.4283 31.3198 24.2932C31.3197 25.1581 30.6186 25.8592 29.7538 25.8592Z" fill="white"/>
</svg>
