<svg width="47" height="47" viewBox="0 0 47 47" fill="none" xmlns="http://www.w3.org/2000/svg">
<path d="M0 45.4839V47H47V45.4839H34.871H12.129H0Z" fill="white"/>
<path d="M12.1289 36.3872C10.4566 36.3872 9.09668 37.7472 9.09668 39.4195C9.09668 41.0918 10.4566 42.4517 12.1289 42.4517C13.8012 42.4517 15.1612 41.0918 15.1612 39.4195C15.1612 37.7472 13.8012 36.3872 12.1289 36.3872ZM12.1289 40.9356C11.2928 40.9356 10.6128 40.2556 10.6128 39.4195C10.6128 38.5833 11.2928 37.9033 12.1289 37.9033C12.9651 37.9033 13.6451 38.5833 13.6451 39.4195C13.6451 40.2556 12.9651 40.9356 12.1289 40.9356Z" fill="white"/>
<path d="M34.8711 36.3872C33.1988 36.3872 31.8389 37.7472 31.8389 39.4195C31.8389 41.0918 33.1988 42.4517 34.8711 42.4517C36.5434 42.4517 37.9034 41.0918 37.9034 39.4195C37.9034 37.7472 36.5434 36.3872 34.8711 36.3872ZM34.8711 40.9356C34.035 40.9356 33.355 40.2556 33.355 39.4195C33.355 38.5833 34.035 37.9033 34.8711 37.9033C35.7073 37.9033 36.3873 38.5833 36.3873 39.4195C36.3873 40.2556 35.7073 40.9356 34.8711 40.9356Z" fill="white"/>
<path d="M46.5808 29.6443L40.6724 26.6901L34.5632 18.7479C33.5656 17.4516 31.9934 16.6776 30.3567 16.6776H21.4252C22.2871 15.0508 22.7419 13.2451 22.7419 11.3712C22.7419 9.66627 22.3735 8.02657 21.6473 6.49756L20.2775 7.14798C20.9067 8.47232 21.2258 9.89293 21.2258 11.3712C21.2258 13.3914 20.6171 15.3207 19.4739 16.9702C18.4983 17.306 17.6235 17.9186 16.9852 18.7486L15.9542 20.0881C14.5503 20.828 12.9705 21.226 11.371 21.226C9.03916 21.226 6.8385 20.4247 5.07297 18.9518H7.58065V17.4357H3.79032C3.37187 17.4357 3.03226 17.7753 3.03226 18.1937V21.9841H4.54839V20.4535C6.50571 21.9318 8.87011 22.7421 11.371 22.7421C12.3223 22.7421 13.2692 22.6224 14.1849 22.3889L10.9396 26.6075L3.5955 28.1812C1.51234 28.6277 0 30.4979 0 32.6288V37.9034C0 39.1573 1.02035 40.1776 2.27419 40.1776H6.11682C6.49206 43.1644 9.04219 45.4841 12.129 45.4841C15.2159 45.4841 17.766 43.1644 18.1412 40.1776H28.8595C29.2348 43.1644 31.7849 45.4841 34.8717 45.4841C37.9586 45.4841 40.5087 43.1644 40.8839 40.1776H44.7258C45.9796 40.1776 47 39.1573 47 37.9034V30.3228C47 30.0355 46.8378 29.7732 46.5808 29.6443ZM45.4839 35.6292H43.9677V30.0332L45.4839 30.7913V35.6292ZM1.51916 32.597H3.03226V34.1131H1.51613V32.6288C1.51613 32.6182 1.51916 32.6076 1.51916 32.597ZM12.129 43.9679C9.6206 43.9679 7.58065 41.928 7.58065 39.4195C7.58065 36.9111 9.6206 34.8712 12.129 34.8712C14.6375 34.8712 16.6774 36.9111 16.6774 39.4195C16.6774 41.928 14.6375 43.9679 12.129 43.9679ZM34.871 43.9679C32.3625 43.9679 30.3226 41.928 30.3226 39.4195C30.3226 36.9111 32.3625 34.8712 34.871 34.8712C37.3794 34.8712 39.4194 36.9111 39.4194 39.4195C39.4194 41.928 37.3794 43.9679 34.871 43.9679ZM44.7258 38.6615H40.8832C40.5079 35.6747 37.9578 33.355 34.871 33.355C31.7841 33.355 29.234 35.6747 28.8588 38.6615H18.1412C17.766 35.6747 15.2159 33.355 12.129 33.355C9.04219 33.355 6.49206 35.6747 6.11682 38.6615H2.27419C1.8565 38.6615 1.51613 38.3211 1.51613 37.9034V35.6292H3.79032C4.20877 35.6292 4.54839 35.2896 4.54839 34.8712V31.8389C4.54839 31.4204 4.20877 31.0808 3.79032 31.0808H1.95202C2.37426 30.3758 3.07168 29.8444 3.91313 29.664L11.5302 28.0319C11.706 27.994 11.8622 27.8954 11.9721 27.7529L18.1875 19.6735C18.8993 18.7464 20.0228 18.1937 21.1917 18.1937H30.3575C31.5264 18.1937 32.6491 18.7464 33.3617 19.6735L39.577 27.7529C39.6468 27.8439 39.7362 27.9174 39.8386 27.969L42.4516 29.2751V36.3873C42.4516 36.8057 42.7912 37.1454 43.2097 37.1454H45.4839V37.9034C45.4839 38.3211 45.1435 38.6615 44.7258 38.6615Z" fill="white"/>
<path d="M37.0595 28.3984C37.1899 28.1475 37.1702 27.845 37.008 27.6138L32.3807 21.0035C31.8145 20.1931 30.8858 19.7095 29.8966 19.7095H21.6519C20.6626 19.7095 19.7339 20.1931 19.1677 21.0035L14.5404 27.6138C14.3782 27.845 14.3585 28.1475 14.4889 28.3984C14.6193 28.6486 14.8785 28.8062 15.1613 28.8062H36.3871C36.6699 28.8062 36.9291 28.6486 37.0595 28.3984ZM20.4101 21.8722C20.6929 21.4674 21.1576 21.2256 21.6519 21.2256H25.0161V27.2901H16.6175L20.4101 21.8722ZM26.5323 27.2901V21.2256H29.8966C30.3908 21.2256 30.8555 21.4674 31.1383 21.8722L34.9309 27.2901H26.5323Z" fill="white"/>
<path d="M23.5 30.3228H26.5323V31.8389H23.5V30.3228Z" fill="white"/>
<path d="M34.1128 30.3223H37.1451V31.8384H34.1128V30.3223Z" fill="white"/>
<path d="M2.46371 15.5941C1.83527 14.2698 1.51613 12.8492 1.51613 11.371C1.51613 5.93716 5.93716 1.51613 11.371 1.51613C13.7028 1.51613 15.9034 2.3174 17.669 3.79032H15.1613V5.30645H18.9516C19.3701 5.30645 19.7097 4.96684 19.7097 4.54839V0.758064H18.1935V2.2886C16.2362 0.810371 13.8718 0 11.371 0C5.10102 0 0 5.10102 0 11.371C0 13.0759 0.368419 14.7155 1.09465 16.2446L2.46371 15.5941Z" fill="white"/>
<path d="M10.4648 14.5209L8.17238 11.6562L6.98828 12.603L10.0205 16.3933C10.1653 16.5737 10.3837 16.6776 10.6126 16.6776C10.6391 16.6776 10.6657 16.6761 10.6922 16.6738C10.9492 16.6465 11.1743 16.4903 11.2903 16.2591L15.8387 7.16235L14.4825 6.48389L10.4648 14.5209Z" fill="white"/>
</svg>
