<svg width="47" height="47" viewBox="0 0 47 47" fill="none" xmlns="http://www.w3.org/2000/svg">
<path d="M46.523 40.7979C46.4229 40.7548 46.3148 40.7325 46.2056 40.7324H39.7226V36.0325H46.2056C46.6444 36.0324 47 35.6814 46.9998 35.2488C46.9997 35.1411 46.9771 35.0346 46.9334 34.9359C45.0227 30.5875 39.8979 28.5895 35.487 30.4732C35.025 30.6705 34.5811 30.9069 34.1606 31.1799V29.766H32.5714V32.4802C32.0043 33.0725 31.5251 33.7411 31.1483 34.4659H24.6256V28.7642L28.8496 27.3761C29.1742 27.2695 29.3932 26.9701 29.3931 26.6328V24.2828H33.366C35.559 24.2853 37.3363 26.0374 37.3389 28.1994H38.928C38.9246 25.1726 36.4363 22.7196 33.366 22.7162H27.8039V20.0897C30.2591 18.6923 31.773 16.1112 31.7768 13.3164V9.39979H35.7497V7.83316H31.7768V4.6999C31.7742 2.10526 29.6413 0.00254578 27.0093 0H20.6527C18.0208 0.00254578 15.8878 2.10526 15.8852 4.6999V7.83316H12.7069C12.2681 7.83316 11.9123 8.18389 11.9123 8.61648V13.3164C11.9123 13.749 12.2681 14.0997 12.7069 14.0997H13.5015V18.0163C13.5015 18.2781 13.6341 18.5227 13.8551 18.668L16.2388 20.2346L17.1208 18.9312L15.0907 17.5972V14.0997H15.9258C16.1854 16.6029 17.6481 18.8309 19.8581 20.0897V22.7162H14.2961C11.2257 22.7196 8.73749 25.1726 8.73401 28.1994H10.3232C10.3258 26.0374 12.103 24.2853 14.2961 24.2828H18.269V26.6328C18.2689 26.9701 18.4879 27.2695 18.8125 27.3761L23.0364 28.7642V34.4659H16.5137C16.1369 33.7411 15.6578 33.0725 15.0907 32.4802V29.766H13.5015V31.176C9.46026 28.5805 4.04987 29.706 1.41693 33.6898C-1.21591 37.6738 -0.0741997 43.0075 3.96693 45.6031C5.38526 46.514 7.04136 46.999 8.73401 46.999C12.0168 46.9969 15.0216 45.1817 16.5137 42.2991H31.1483C33.3386 46.535 38.5973 48.2184 42.8941 46.0592C44.6971 45.1532 46.1249 43.6579 46.9334 41.8291C47.109 41.4326 46.9253 40.9709 46.523 40.7979ZM15.8852 12.5331H13.5015V9.39979H15.8852V12.5331ZM27.8039 26.068L25.7769 26.7346L27.4344 24.2828H27.8039V26.068ZM21.4473 22.7162V20.7884C22.9989 21.2699 24.6631 21.2699 26.2148 20.7884V22.7162H21.4473ZM17.4744 4.6999C17.4744 2.96945 18.8974 1.56663 20.6527 1.56663H27.0093C28.7647 1.56663 30.1877 2.96945 30.1877 4.6999V7.83316H17.4744V4.6999ZM17.4744 13.3164V9.39979H30.1877V13.3164C30.1877 16.7773 27.3417 19.5829 23.831 19.5829C20.3204 19.5829 17.4744 16.7773 17.4744 13.3164ZM19.8581 26.068V24.2828H20.2276L21.8851 26.7346L19.8581 26.068ZM22.137 24.2828H25.5251L23.831 26.7894L22.137 24.2828ZM34.9628 44.2485C33.8227 43.4986 32.9255 42.4411 32.3783 41.2024C32.252 40.9171 31.9663 40.7326 31.6505 40.7324H16.0116C15.6957 40.7326 15.4101 40.9171 15.2837 41.2024C13.7039 44.7709 9.48886 46.4012 5.86906 44.8438C2.24925 43.2863 0.595532 39.1311 2.17535 35.5626C3.31339 32.9919 5.88892 31.3309 8.73401 31.3326C11.5758 31.3344 14.147 32.9948 15.2837 35.5626C15.4101 35.8479 15.6957 36.0324 16.0116 36.0325H31.6505C31.9662 36.0324 32.252 35.8479 32.3783 35.5626C33.9533 31.9972 38.1619 30.3654 41.7785 31.9181C43.035 32.4575 44.1077 33.342 44.8683 34.4659H38.928C38.4892 34.4659 38.1335 34.8166 38.1335 35.2492V41.5158C38.1335 41.9483 38.4892 42.2991 38.928 42.2991H44.8683C42.679 45.534 38.2442 46.4067 34.9628 44.2485Z" fill="white"/>
<path d="M13.116 35.3612L9.1431 33.0113C8.89132 32.8621 8.57647 32.8621 8.32468 33.0113L4.35179 35.3612C4.11589 35.5009 3.97009 35.751 3.96641 36.0223L3.90046 40.9831C3.89639 41.278 4.06067 41.5502 4.32556 41.6873L8.36521 43.7764C8.61073 43.9031 8.90552 43.8945 9.1431 43.7537L13.116 41.4037C13.3551 41.2621 13.5013 41.0073 13.5014 40.7324V36.0325C13.5014 35.7576 13.3551 35.5028 13.116 35.3612ZM11.9122 40.289L8.70767 42.1847L5.49519 40.5233L5.55001 36.4798L8.73389 34.5959L11.9122 36.4759V40.289Z" fill="white"/>
<path d="M31.7768 37.5991H15.8853V39.1658H31.7768V37.5991Z" fill="white"/>
<path d="M24.6258 10.9663H23.0366V14.8829H24.6258V10.9663Z" fill="white"/>
<path d="M30.9823 31.333H26.2148V32.8996H30.9823V31.333Z" fill="white"/>
</svg>
