<svg width="47" height="53" viewBox="0 0 47 53" fill="none" xmlns="http://www.w3.org/2000/svg">
<path d="M30.2931 33.5128C30.8522 33.5128 31.3053 33.0597 31.3053 32.5006C31.3053 31.9416 30.8522 31.4885 30.2931 31.4885H29.3334V30.2378C29.3334 29.6787 28.8803 29.2256 28.3212 29.2256H22.4103C21.8513 29.2256 21.3982 29.6787 21.3982 30.2378V30.4714H20.5082L18.6182 25.0425L22.5849 19.9979C22.7932 19.733 22.856 19.3819 22.7524 19.0613L16.8255 0.701179C16.743 0.445778 16.5624 0.233449 16.3234 0.111203C16.0845 -0.0111563 15.8067 -0.0335363 15.5513 0.049011L0.701204 4.84294C0.445802 4.92537 0.233474 5.10598 0.111227 5.34497C-0.0111316 5.58395 -0.0335116 5.86162 0.0489231 6.11713L5.97613 24.4771C6.07959 24.7978 6.3359 25.0459 6.65979 25.139L12.8677 26.9235L14.1034 30.4714H10.8344C9.80546 30.4714 8.85943 30.9142 8.20344 31.6453H4.846C4.28695 31.6453 3.83384 32.0984 3.83384 32.6574C3.83384 33.2165 4.28695 33.6696 4.846 33.6696H7.22176L1.59899 50.7335C1.49732 51.0418 1.54984 51.3803 1.74024 51.6434C1.93053 51.9066 2.23552 52.0623 2.56032 52.0623C7.14978 52.0623 11.2081 49.1369 12.659 44.783L14.672 38.7418C14.92 37.9975 15.5333 37.4537 16.2734 37.281C16.5191 40.0451 17.7134 42.6114 19.6993 44.5974L20.3111 45.2092C20.5087 45.4068 20.7678 45.5057 21.0268 45.5057C21.2858 45.5057 21.5448 45.4068 21.7425 45.2092C22.1378 44.8139 22.1378 44.1731 21.7425 43.7778L21.1307 43.166C19.5134 41.5487 18.5294 39.4671 18.3013 37.222H21.3982V37.4557C21.3982 38.0148 21.8513 38.4679 22.4103 38.4679H28.3212C28.8803 38.4679 29.3334 38.0148 29.3334 37.4557V36.205H30.2931C30.8522 36.205 31.3053 35.7519 31.3053 35.1929C31.3053 34.6338 30.8522 34.1807 30.2931 34.1807H29.3334V33.5126H30.2931V33.5128ZM15.2099 2.28633L15.6721 3.71786L2.74846 7.88999L2.28636 6.45845L15.2099 2.28633ZM7.73695 23.3423L3.37038 9.81635L16.294 5.64423L20.6605 19.1702L16.8749 23.9844L13.633 25.0372L7.73695 23.3423ZM14.9469 26.739L16.8502 26.1209L18.3646 30.4713H16.2467L14.9469 26.739ZM10.7385 44.1431C9.71786 47.2059 7.10424 49.3957 3.99904 49.9181L8.18252 37.2223H13.1614C12.9944 37.4948 12.8559 37.789 12.7515 38.1019L10.7385 44.1431ZM8.84954 35.1979L9.39756 33.535C9.60236 32.9134 10.1797 32.4957 10.8343 32.4957H21.3983V35.1979H8.84954ZM27.3091 36.4438H23.4225V31.25H27.3091V36.4438Z" fill="white"/>
<path d="M46.5566 41.607L35.1313 33.8464L46.5565 26.0859C47.0189 25.7718 47.1391 25.1423 46.825 24.6799C46.5109 24.2175 45.8814 24.0972 45.419 24.4113L32.7612 33.0091C32.4839 33.1975 32.3177 33.5111 32.3177 33.8464C32.3177 34.1818 32.4839 34.4953 32.7612 34.6837L45.419 43.2815C45.5932 43.3999 45.791 43.4565 45.9868 43.4565C46.3109 43.4565 46.6292 43.3012 46.825 43.013C47.1391 42.5505 47.019 41.9211 46.5566 41.607Z" fill="white"/>
</svg>
