<svg width="48" height="48" viewBox="0 0 48 48" fill="none" xmlns="http://www.w3.org/2000/svg">
<path d="M47.4484 19.8683V19.1598C47.4484 18.3063 47.0783 17.4964 46.4329 16.9378L42.0615 13.1549C41.5262 12.6918 40.8415 12.4367 40.1336 12.4367H29.7442C29.1036 12.4367 28.47 12.6503 27.9602 13.0382L23.6874 16.2893L18.0397 17.2913C17.2415 17.4325 16.5306 17.9042 16.089 18.586L15.7946 19.0414C15.4233 19.6147 15.2271 20.279 15.2271 20.9623C15.2271 21.4638 15.3313 21.9509 15.5373 22.4116C15.7431 22.8694 16.0379 23.271 16.4141 23.6056L16.811 23.958C17.4137 24.4939 18.1897 24.7889 18.9961 24.7889H19.8997C20.2017 25.3645 20.645 25.8544 21.1839 26.2122H14.5655V12.8615C14.5655 12.3587 14.1579 11.9512 13.6551 11.9512H3.79309C3.38212 11.9512 3.02213 12.2265 2.91451 12.6231L0.0317608 23.2438C0.0106207 23.3214 0 23.4017 0 23.4822V30.7639C0 31.2667 0.40753 31.6742 0.910342 31.6742H3.63034C3.60607 31.8486 3.59251 32.0264 3.59251 32.2074C3.59251 34.3258 5.31599 36.0491 7.43436 36.0491C9.55272 36.0491 11.2761 34.3257 11.2761 32.2074C11.2761 32.0264 11.2625 31.8486 11.2383 31.6742H26.6981C26.6738 31.8486 26.6603 32.0264 26.6603 32.2074C26.6603 34.3258 28.3838 36.0491 30.5021 36.0491C32.6205 36.0491 34.3439 34.3257 34.3439 32.2074C34.3439 32.0264 34.3303 31.8486 34.306 31.6742H35.4458C35.4215 31.8486 35.408 32.0264 35.408 32.2074C35.408 34.3258 37.1314 36.0491 39.2498 36.0491C41.3682 36.0491 43.0915 34.3257 43.0915 32.2074C43.0915 32.0264 43.078 31.8486 43.0537 31.6742H44.6045C45.1073 31.6742 45.5149 31.2667 45.5149 30.7639V27.1225C45.5149 26.6197 45.1073 26.2122 44.6045 26.2122H42.8928C43.4316 25.8544 43.8749 25.3645 44.177 24.7889H44.6352C45.6982 24.7889 46.7212 24.2866 47.3716 23.4453C47.7768 22.9215 47.9999 22.2681 47.9999 21.6057C48 20.9782 47.8063 20.3738 47.4484 19.8683ZM42.8403 16.2367H41.0553L40.5692 14.3462C40.6777 14.3918 40.7798 14.4535 40.8701 14.5317L42.8403 16.2367ZM39.1754 16.2367H34.3255L34.7779 14.2573H38.6664L39.1754 16.2367ZM29.0628 14.4871C29.2575 14.3389 29.4994 14.2573 29.7442 14.2573H32.9103L32.4578 16.2367H26.7632L29.0628 14.4871ZM21.2823 23.0099C21.2823 21.8954 22.189 20.9888 23.3033 20.9888C24.4177 20.9888 25.3244 21.8955 25.3244 23.0099C25.3244 24.1244 24.4177 25.0311 23.3033 25.0311C22.189 25.0311 21.2823 24.1244 21.2823 23.0099ZM4.4893 13.7719H7.88943V21.0749L2.17926 22.2828L4.4893 13.7719ZM7.43436 34.2285C6.3199 34.2285 5.4132 33.3218 5.4132 32.2075C5.4132 31.093 6.3199 30.1863 7.43436 30.1863C8.54882 30.1863 9.45542 31.093 9.45542 32.2075C9.45542 33.3218 8.54872 34.2285 7.43436 34.2285ZM7.43436 28.3655C6.20236 28.3655 5.10479 28.9491 4.4013 29.8535H1.82068V27.2747H3.33792C3.84073 27.2747 4.24826 26.8671 4.24826 26.3643C4.24826 25.8615 3.84073 25.454 3.33792 25.454H1.82068V24.2196L8.98811 22.7034C9.40899 22.6144 9.71001 22.243 9.71001 21.8128V13.7719H12.7448L12.7443 29.8535H10.4673C9.76382 28.9491 8.66625 28.3655 7.43436 28.3655ZM30.5022 34.2285C29.3877 34.2285 28.4811 33.3218 28.4811 32.2075C28.4811 31.093 29.3878 30.1863 30.5022 30.1863C31.6167 30.1863 32.5233 31.093 32.5233 32.2075C32.5233 33.3218 31.6166 34.2285 30.5022 34.2285ZM39.2499 34.2285C38.1353 34.2285 37.2287 33.3218 37.2287 32.2075C37.2287 31.093 38.1354 30.1863 39.2499 30.1863C40.3644 30.1863 41.271 31.093 41.271 32.2075C41.271 33.3218 40.3644 34.2285 39.2499 34.2285ZM43.6943 29.8535H42.2829C41.5794 28.9491 40.4818 28.3655 39.2498 28.3655C38.0178 28.3655 36.9202 28.9491 36.2167 29.8535H33.5352C32.8317 28.9491 31.7341 28.3655 30.5021 28.3655C29.2701 28.3655 28.1726 28.9491 27.4691 29.8535H14.565V28.0329H43.6943V29.8535ZM25.4227 26.2122C25.9615 25.8544 26.4048 25.3645 26.7069 24.7889H37.37C37.6721 25.3645 38.1154 25.8544 38.6542 26.2122H25.4227ZM38.7524 23.0099C38.7524 21.8954 39.6591 20.9888 40.7735 20.9888C41.8881 20.9888 42.7947 21.8955 42.7947 23.0099C42.7947 24.1244 41.888 25.0311 40.7735 25.0311C39.6591 25.0311 38.7524 24.1244 38.7524 23.0099ZM45.9314 22.3315C45.6232 22.7301 45.1387 22.9681 44.6354 22.9681H44.6144C44.5919 20.869 42.878 19.1681 40.7736 19.1681C38.6692 19.1681 36.9554 20.869 36.9329 22.9681H27.1442C27.1216 20.869 25.4078 19.1681 23.3034 19.1681C21.1991 19.1681 19.4853 20.869 19.4627 22.9681H18.9963C18.6364 22.9681 18.29 22.8363 18.0205 22.5968L17.6238 22.2446C17.5007 22.1351 17.3972 22.0096 17.3113 21.8726H18.0544C18.5572 21.8726 18.9647 21.4651 18.9647 20.9622C18.9647 20.4594 18.5572 20.0519 18.0544 20.0519H17.3105C17.3149 20.0448 17.3187 20.0373 17.3234 20.0304L17.6177 19.575C17.7851 19.3165 18.0544 19.1376 18.3573 19.0841L24.1434 18.0574H44.9442L45.2414 18.3147C45.4869 18.5271 45.6276 18.8352 45.6276 19.1598V20.1871C45.6276 20.4149 45.7131 20.6345 45.8671 20.8024C46.0684 21.0218 46.1792 21.3071 46.1792 21.6055C46.1793 21.8708 46.0935 22.1218 45.9314 22.3315Z" fill="white"/>
</svg>
