<svg width="47" height="47" viewBox="0 0 47 47" fill="none" xmlns="http://www.w3.org/2000/svg">
<path d="M43.0833 0H10.1833C8.02133 0.00254583 6.26921 1.75467 6.26667 3.91667V40.7333H0.783333C0.350737 40.7333 0 41.0841 0 41.5167V43.0833C0.00254583 45.2453 1.75467 46.9975 3.91667 47H36.8167C38.9787 46.9975 40.7308 45.2453 40.7333 43.0833V24.6076L45.5955 19.7455C46.5503 18.7907 46.5503 17.2426 45.5955 16.2878C44.6407 15.3331 43.0926 15.3331 42.1379 16.2878L40.7333 17.6924V6.26667H46.2167C46.6493 6.26667 47 5.91593 47 5.48333V3.91667C46.9975 1.75467 45.2453 0.00254583 43.0833 0ZM3.91667 45.4333C2.61878 45.4333 1.56667 44.3812 1.56667 43.0833V42.3H32.9V43.0833C32.9018 43.3274 32.9264 43.5708 32.9736 43.8103C32.9877 43.8886 33.0105 43.9552 33.0285 44.028C33.0673 44.1875 33.116 44.3445 33.1742 44.498C33.2047 44.5764 33.2376 44.65 33.2729 44.7252C33.3396 44.868 33.415 45.0066 33.4985 45.1404C33.5392 45.2062 33.5768 45.2728 33.623 45.3354C33.645 45.3675 33.6614 45.4028 33.6849 45.4333H3.91667ZM39.1667 43.0833C39.1667 44.3812 38.1146 45.4333 36.8167 45.4333C35.5188 45.4333 34.4667 44.3812 34.4667 43.0833V41.5167C34.4667 41.0841 34.1159 40.7333 33.6833 40.7333H7.83333V3.91667C7.83333 2.61878 8.88545 1.56667 10.1833 1.56667H39.95C39.9265 1.59722 39.9101 1.63247 39.8881 1.66458C39.8435 1.72725 39.8043 1.79383 39.7636 1.85963C39.6801 1.99339 39.6047 2.13204 39.538 2.2748C39.5027 2.35313 39.4698 2.4252 39.4393 2.50197C39.3811 2.6555 39.3324 2.81246 39.2936 2.97197C39.2756 3.04482 39.2528 3.11532 39.2387 3.18973C39.192 3.42924 39.1679 3.67266 39.1667 3.91667V19.259L29.2129 29.2129C29.1124 29.3133 29.0412 29.4392 29.0068 29.5771L28.2235 32.7104C28.1569 32.9773 28.2352 33.2594 28.4295 33.4538C28.4956 33.5174 28.5726 33.5686 28.6567 33.605C28.6771 33.6144 28.6959 33.623 28.717 33.6309C28.8006 33.6628 28.8891 33.6803 28.9786 33.6826H28.9833C29.0473 33.6825 29.1109 33.6746 29.1729 33.6591L32.3062 32.8757C32.4441 32.8414 32.57 32.7702 32.6705 32.6697L39.1667 26.1743V43.0833ZM43.2455 17.3955C43.5931 17.0634 44.1402 17.0634 44.4879 17.3955C44.8303 17.7388 44.8303 18.2946 44.4879 18.6378L43.8667 19.259L42.6243 18.0167L43.2455 17.3955ZM41.5167 19.1243L42.759 20.3667L31.714 31.4117L30.0581 31.8261L30.4725 30.1701L41.5167 19.1243ZM45.4333 4.7H40.7333V3.91667C40.7333 2.61878 41.7854 1.56667 43.0833 1.56667C44.3812 1.56667 45.4333 2.61878 45.4333 3.91667V4.7Z" fill="white"/>
<path d="M32.1166 4.7002H14.8833V6.26686H32.1166V4.7002Z" fill="white"/>
<path d="M17.463 8.0625L16.0271 9.49835C15.9171 9.43598 15.7932 9.4021 15.6668 9.39965H11.7501C11.3175 9.39965 10.9668 9.75039 10.9668 10.183V14.0996C10.9668 14.5322 11.3175 14.883 11.7501 14.883H15.6668C16.0994 14.883 16.4501 14.5322 16.4501 14.0996V11.2906L18.5706 9.17013L17.463 8.0625ZM14.8835 13.3163H12.5335V10.9663H14.5592L13.5463 11.9792L14.6539 13.0868L14.8835 12.8573V13.3163Z" fill="white"/>
<path d="M36.0335 9.40039H19.5835V10.9671H36.0335V9.40039Z" fill="white"/>
<path d="M32.8997 12.5332H19.583V14.0999H32.8997V12.5332Z" fill="white"/>
<path d="M17.463 15.8965L16.0271 17.3323C15.9171 17.27 15.7932 17.2361 15.6668 17.2336H11.7501C11.3175 17.2336 10.9668 17.5844 10.9668 18.017V21.9336C10.9668 22.3662 11.3175 22.717 11.7501 22.717H15.6668C16.0994 22.717 16.4501 22.3662 16.4501 21.9336V19.1246L18.5706 17.0041L17.463 15.8965ZM14.8835 21.1503H12.5335V18.8003H14.5592L13.5463 19.8132L14.6539 20.9208L14.8835 20.6913V21.1503Z" fill="white"/>
<path d="M36.0335 17.2334H19.5835V18.8001H36.0335V17.2334Z" fill="white"/>
<path d="M32.9002 20.3672H19.5835V21.9339H32.9002V20.3672Z" fill="white"/>
<path d="M17.463 23.7295L16.0271 25.1653C15.9171 25.103 15.7932 25.0691 15.6668 25.0666H11.7501C11.3175 25.0666 10.9668 25.4174 10.9668 25.85V29.7666C10.9668 30.1992 11.3175 30.55 11.7501 30.55H15.6668C16.0994 30.55 16.4501 30.1992 16.4501 29.7666V26.9576L18.5706 24.8371L17.463 23.7295ZM14.8835 28.9833H12.5335V26.6333H14.5592L13.5463 27.6462L14.6539 28.7538L14.8835 28.5243V28.9833Z" fill="white"/>
<path d="M29.7663 25.0664H19.583V26.6331H29.7663V25.0664Z" fill="white"/>
<path d="M26.633 28.2002H19.583V29.7669H26.633V28.2002Z" fill="white"/>
<path d="M17.463 31.5625L16.0271 32.9983C15.9171 32.936 15.7932 32.9021 15.6668 32.8997H11.7501C11.3175 32.8997 10.9668 33.2504 10.9668 33.683V37.5996C10.9668 38.0322 11.3175 38.383 11.7501 38.383H15.6668C16.0994 38.383 16.4501 38.0322 16.4501 37.5996V34.7906L18.5706 32.6701L17.463 31.5625ZM14.8835 36.8163H12.5335V34.4663H14.5592L13.5463 35.4792L14.6539 36.5868L14.8835 36.3573V36.8163Z" fill="white"/>
<path d="M26.6335 32.9004H19.5835V34.4671H26.6335V32.9004Z" fill="white"/>
<path d="M32.8997 36.0332H19.583V37.5999H32.8997V36.0332Z" fill="white"/>
</svg>
